<?xml version="1.0" standalone="no"?>
<!DOCTYPE svg PUBLIC "-//W3C//DTD SVG 20010904//EN"
 "http://www.w3.org/TR/2001/REC-SVG-20010904/DTD/svg10.dtd">
<svg version="1.0" xmlns="http://www.w3.org/2000/svg"
 width="512.000000pt" height="512.000000pt" viewBox="0 0 512.000000 512.000000"
 preserveAspectRatio="xMidYMid meet">
<metadata>
Created by potrace 1.14, written by Peter Selinger 2001-2017
</metadata>
<g transform="translate(0.000000,512.000000) scale(0.100000,-0.100000)"
fill="#000000" stroke="none">
<path d="M2408 4825 c-3 -3 -49 -12 -102 -20 -245 -37 -525 -146 -750 -292
-190 -123 -307 -229 -449 -403 -98 -120 -84 -100 -149 -206 -152 -246 -234
-469 -285 -774 -25 -149 -25 -503 0 -655 27 -162 57 -294 81 -349 7 -17 28
-67 46 -111 70 -168 148 -309 247 -444 16 -22 16 -24 -2 -37 -10 -8 -29 -14
-42 -14 -13 0 -46 -12 -74 -26 l-51 -25 -49 51 c-93 97 -201 123 -305 74 -101
-48 -162 -132 -188 -260 -17 -82 -31 -130 -84 -284 -22 -63 -52 -153 -67 -200
-23 -72 -35 -92 -77 -133 -60 -58 -88 -115 -88 -182 0 -62 26 -121 74 -168 58
-59 108 -78 214 -84 93 -6 94 -6 168 32 74 38 76 38 107 22 90 -46 80 -45 603
-47 315 -2 510 1 530 8 53 17 407 15 509 -4 106 -19 283 -32 565 -40 171 -5
217 -4 280 10 66 15 182 18 945 23 l870 5 50 23 c61 29 71 38 117 98 66 87 61
217 -13 300 l-39 45 0 192 c0 189 0 192 25 224 14 18 33 55 41 81 16 44 15 50
-2 103 -28 81 -86 136 -172 161 -59 16 -97 18 -322 16 -140 -1 -264 -5 -276
-8 -11 -4 -28 -1 -38 6 -17 12 -14 19 42 98 105 147 184 312 245 509 45 147
55 183 67 250 6 36 16 90 22 120 6 30 13 147 15 260 4 177 2 222 -17 330 -27
164 -51 248 -112 405 -87 224 -141 320 -290 517 -249 328 -605 575 -1025 714
-88 29 -199 58 -245 64 -45 6 -99 16 -119 21 -38 9 -422 13 -431 4z m289 -221
c184 -27 295 -76 483 -214 178 -130 331 -200 439 -200 57 0 23 -18 -54 -29
-98 -14 -231 7 -430 69 -88 27 -203 57 -255 66 -180 31 -378 -2 -443 -74 -18
-19 -17 -19 45 -5 94 22 332 13 412 -16 92 -33 181 -87 250 -152 l64 -59 73 0
c97 0 186 -22 285 -70 109 -53 178 -118 270 -256 81 -122 120 -159 211 -202
51 -23 70 -27 158 -27 92 0 106 3 162 31 l62 30 -26 -49 c-36 -65 -116 -144
-192 -189 -93 -54 -178 -72 -320 -66 -256 11 -423 105 -784 440 -89 82 -190
171 -225 197 -149 112 -299 183 -429 204 -68 11 -74 13 -68 32 4 11 9 61 12
110 8 134 -29 267 -75 273 -40 6 -129 -45 -159 -90 -16 -23 -61 -72 -101 -111
-98 -95 -136 -171 -140 -282 -3 -66 1 -92 21 -148 l25 -69 -25 24 c-32 29 -66
97 -88 173 -32 107 -5 263 60 360 14 20 25 38 25 40 0 13 -82 -46 -125 -90
-57 -58 -82 -104 -126 -230 -46 -133 -70 -169 -200 -295 -108 -106 -119 -119
-119 -152 0 -19 7 -52 15 -71 33 -79 25 -105 -114 -378 -192 -378 -202 -396
-253 -456 -27 -30 -48 -60 -48 -68 0 -7 9 -42 20 -77 11 -34 27 -101 35 -148
13 -72 20 -89 45 -112 29 -27 52 -33 113 -29 15 0 45 -8 67 -19 44 -22 114
-26 146 -7 11 7 46 35 77 62 l57 50 0 73 c0 44 6 84 15 101 17 33 87 99 219
205 l95 76 98 10 c145 14 204 39 275 118 45 50 71 98 93 176 22 74 17 239 -9
306 -10 25 -20 54 -23 65 -8 31 66 -81 96 -144 24 -51 26 -67 26 -181 0 -124
0 -126 -37 -201 -27 -55 -54 -92 -97 -132 -72 -66 -140 -94 -261 -109 -47 -5
-94 -12 -105 -14 -20 -4 -253 -195 -267 -219 -4 -6 -6 -45 -5 -86 2 -92 -5
-105 -110 -190 -114 -93 -170 -107 -281 -70 -31 10 -82 21 -113 23 -127 10
-200 82 -219 218 -6 41 -16 89 -22 105 -51 148 -45 203 30 289 34 38 92 142
206 368 l159 313 -16 50 c-42 121 -15 193 118 320 l95 90 3 110 c5 141 27 202
104 285 54 58 171 130 213 130 11 0 29 18 43 43 32 54 72 91 91 84 12 -5 35
-67 62 -166 3 -8 30 14 68 56 93 100 186 145 370 178 96 18 131 18 253 -1z
m-426 -447 c-19 -114 -68 -189 -153 -233 -16 -9 -32 -13 -35 -10 -13 13 36
123 125 279 l57 98 8 -33 c6 -20 5 -59 -2 -101z m13 -432 c94 -53 152 -99 229
-179 262 -274 382 -612 347 -976 -12 -128 -21 -172 -57 -280 -98 -293 -332
-553 -632 -704 -40 -21 -75 -35 -77 -33 -2 2 20 20 48 40 75 52 192 169 259
260 334 448 388 1032 141 1511 -77 150 -210 309 -316 380 -61 41 -28 30 58
-19z m-411 -76 c23 -5 53 -18 66 -28 24 -18 24 -18 -34 -9 -103 18 -187 -23
-255 -125 -44 -65 -48 -64 -24 2 30 86 58 124 119 155 35 19 70 20 128 5z m31
-135 c21 -8 21 -75 1 -113 -16 -31 -39 -41 -99 -41 -26 0 -47 -7 -62 -21 l-22
-20 15 63 c7 35 22 74 32 88 26 36 96 59 135 44z m1396 -195 c99 -72 151 -104
300 -184 219 -117 335 -213 424 -350 111 -170 141 -272 140 -485 0 -166 -5
-194 -67 -355 l-30 -80 -28 81 c-30 91 -94 224 -142 293 -17 25 -74 102 -127
171 -215 280 -263 354 -443 692 -58 109 -131 237 -162 285 l-57 87 59 -51 c32
-27 92 -74 133 -104z m172 -806 c36 -54 114 -158 175 -231 184 -225 256 -359
288 -541 17 -95 20 -247 5 -256 -6 -3 -10 4 -10 18 0 31 -29 114 -68 197 -40
84 -135 226 -241 360 -168 213 -233 367 -265 635 l-7 50 29 -67 c16 -36 59
-111 94 -165z m-976 102 c-66 -149 -232 -329 -425 -460 -198 -135 -277 -193
-343 -254 -122 -112 -221 -271 -256 -410 -10 -39 -22 -68 -25 -64 -4 3 -7 48
-7 98 0 205 86 388 253 541 83 75 147 118 307 204 242 130 383 236 470 350 24
33 46 58 47 56 2 -2 -8 -29 -21 -61z m-1275 -14 c49 -50 38 -141 -25 -200
l-25 -24 6 51 c8 68 0 94 -37 115 -52 31 -34 86 28 87 13 0 37 -13 53 -29z
m-504 -1311 c19 -58 69 -225 113 -373 44 -147 86 -281 95 -297 9 -18 27 -32
43 -36 31 -8 42 -21 35 -41 -4 -10 -41 -13 -169 -13 l-164 0 0 24 c0 18 7 25
30 30 17 3 33 13 37 22 3 9 -5 49 -17 90 l-24 74 -131 0 -131 0 -28 -86 c-29
-91 -27 -103 17 -104 11 0 17 -8 17 -25 l0 -25 -110 0 c-102 0 -110 1 -110 19
0 13 11 23 34 31 66 21 56 -4 283 705 38 119 36 116 96 113 l51 -3 33 -105z
m1411 25 c83 -11 100 -32 108 -132 6 -73 5 -83 -11 -89 -28 -11 -48 8 -70 67
-28 73 -67 99 -147 99 -53 0 -63 -3 -90 -30 -26 -27 -30 -36 -25 -67 8 -50 41
-80 164 -153 129 -77 165 -108 192 -164 58 -120 -8 -272 -138 -316 -62 -21
-148 -18 -221 8 -25 8 -59 14 -77 13 -36 -2 -36 -2 -54 113 -12 78 -12 80 11
98 13 10 27 17 32 16 5 -2 20 -29 33 -61 28 -71 39 -83 87 -108 113 -58 228
-9 214 90 -7 47 -45 83 -164 154 -119 71 -176 126 -192 188 -25 93 16 198 96
245 45 26 127 45 174 38 14 -1 49 -6 78 -9z m1362 -8 c57 -15 70 -40 70 -139
0 -69 -2 -78 -18 -78 -25 0 -45 25 -66 82 -18 48 -59 84 -101 88 -97 10 -148
-20 -148 -89 0 -57 27 -83 173 -170 162 -97 200 -146 200 -256 0 -94 -48 -172
-127 -207 -57 -25 -172 -26 -244 -3 -29 10 -69 18 -88 19 l-35 1 -12 89 c-13
98 -11 111 18 127 24 13 32 6 47 -41 26 -83 75 -126 160 -145 43 -9 118 12
136 39 17 24 20 89 5 116 -10 19 -120 100 -137 100 -20 2 -149 99 -177 133
-29 36 -31 44 -31 120 0 76 2 85 32 128 39 56 53 68 100 85 46 16 182 17 243
1z m-1820 -112 l0 -115 -29 0 c-36 0 -40 5 -51 77 -12 73 -34 93 -101 93 l-49
0 0 -315 c0 -302 1 -316 20 -335 11 -11 29 -20 40 -20 15 0 20 -7 20 -25 l0
-25 -165 0 -165 0 0 25 c0 19 5 25 21 25 11 0 29 5 40 10 18 10 19 25 19 335
l0 325 -48 0 c-26 0 -57 -7 -69 -15 -23 -16 -43 -70 -43 -117 0 -25 -3 -28
-35 -28 l-35 0 0 110 0 110 315 0 315 0 0 -115z m990 95 c0 -14 -7 -20 -23
-20 -46 0 -47 -8 -47 -304 0 -248 2 -285 18 -316 37 -73 117 -88 183 -33 59
50 63 72 67 346 2 137 1 259 -2 272 -4 17 -16 27 -39 33 -17 4 -33 16 -35 25
-3 15 9 17 107 17 61 0 111 -2 111 -4 0 -18 -15 -36 -30 -36 -10 0 -22 -6 -28
-13 -7 -8 -12 -112 -15 -282 -2 -183 -7 -283 -16 -310 -18 -56 -95 -128 -154
-145 -57 -15 -142 -8 -201 19 -43 19 -99 75 -119 120 -8 17 -14 125 -17 311
l-5 285 -35 11 c-19 6 -36 19 -38 28 -3 14 14 16 157 16 154 0 161 -1 161 -20z
m1350 0 c0 -14 -7 -20 -23 -20 -43 0 -47 -16 -47 -167 l0 -143 125 0 125 0 0
150 0 149 -40 11 c-24 6 -40 17 -40 25 0 13 27 15 165 15 158 0 165 -1 165
-20 0 -14 -7 -20 -22 -20 -49 0 -48 4 -46 -346 l3 -329 33 -10 c24 -7 32 -15
32 -32 l0 -23 -160 0 -160 0 0 25 c0 18 5 25 19 25 50 0 51 2 51 171 l0 159
-102 0 c-162 0 -149 14 -146 -164 l3 -151 33 -10 c24 -7 32 -15 32 -32 l0 -23
-160 0 -160 0 0 23 c0 19 8 25 38 33 l37 9 0 330 0 330 -35 11 c-19 6 -36 19
-38 28 -3 14 14 16 157 16 154 0 161 -1 161 -20z m870 5 c0 -8 -16 -21 -35
-29 l-35 -15 0 -320 c0 -319 0 -320 22 -335 12 -9 33 -16 46 -16 19 0 23 -5
20 -22 -3 -23 -5 -23 -170 -26 l-168 -2 0 25 c0 19 5 25 21 25 11 0 29 5 40
10 18 10 19 25 19 334 0 345 1 341 -50 348 -14 1 -26 11 -28 21 -3 16 10 17
157 17 136 0 161 -2 161 -15z"/>
<path d="M512 1007 c-28 -83 -52 -158 -52 -164 0 -10 28 -13 105 -13 93 0 105
2 105 18 0 9 -16 67 -35 127 -20 61 -40 127 -46 148 -5 20 -13 37 -17 37 -4 0
-31 -69 -60 -153z"/>
</g>
</svg>
